<svg xmlns="http://www.w3.org/2000/svg" viewBox="0 0 96 96" fill="none">
  <rect width="96" height="96" rx="48" fill="#F7F1E9"/>
  <circle cx="48" cy="35" r="18" fill="#232727"/>
  <path d="M27 84c3-19 13-29 21-29s18 10 21 29" fill="#EDE3D3"/>
  <path d="M35 39c1 12 6 21 13 21s12-9 13-21c-2-8-8-13-13-13s-11 5-13 13Z" fill="#F0C7A9"/>
  <path d="M33 37c5-11 13-16 24-12 7 3 10 10 8 18-6-2-11-6-14-12-4 7-10 11-18 12v-6Z" fill="#202423"/>
  <path d="M39 50c5 5 13 5 18 0" stroke="#B77562" stroke-width="2" stroke-linecap="round"/>
  <path d="M26 84c4-16 12-25 22-25s18 9 22 25H26Z" fill="#F6F2EA"/>
  <path d="M39 62c4 7 14 7 18 0" stroke="#E5D5C3" stroke-width="6" stroke-linecap="round"/>
</svg>
