<svg xmlns="http://www.w3.org/2000/svg" viewBox="0 0 24 24" fill="none" stroke="black" stroke-width="1.8" stroke-linecap="round" stroke-linejoin="round"><circle cx="12" cy="12" r="3"/><path d="M19.4 15a1.6 1.6 0 0 0 .3 1.8l.1.1-2 3.4-.2-.1a1.6 1.6 0 0 0-1.8-.1l-1 .6a1.6 1.6 0 0 0-.8 1.5v.3H10v-.3a1.6 1.6 0 0 0-.8-1.5l-1-.6a1.6 1.6 0 0 0-1.8.1l-.2.1-2-3.4.1-.1A1.6 1.6 0 0 0 4.6 15l-.6-1a1.6 1.6 0 0 0-1.5-.8H2v-4h.5A1.6 1.6 0 0 0 4 8.4l.6-1a1.6 1.6 0 0 0-.3-1.8l-.1-.1 2-3.4.2.1a1.6 1.6 0 0 0 1.8.1l1-.6A1.6 1.6 0 0 0 10 0h4a1.6 1.6 0 0 0 .8 1.7l1 .6a1.6 1.6 0 0 0 1.8-.1l.2-.1 2 3.4-.1.1a1.6 1.6 0 0 0-.3 1.8l.6 1a1.6 1.6 0 0 0 1.5.8h.5v4h-.5a1.6 1.6 0 0 0-1.5.8l-.6 1Z"/></svg>
